<svg width="330" height="85" viewBox="0 0 330 85" fill="none" xmlns="http://www.w3.org/2000/svg">
<path d="M115.758 49.675C117.108 49.675 118.249 49.8 119.183 50.05C120.116 50.3 120.858 50.7833 121.408 51.5C121.974 52.2 122.258 53.2083 122.258 54.525C122.258 55.1083 122.166 55.7083 121.983 56.325C121.816 56.925 121.599 57.45 121.333 57.9C121.083 58.35 120.858 58.6417 120.658 58.775C120.424 58.9417 119.908 59.075 119.108 59.175C118.308 59.2583 117.366 59.3 116.283 59.3C115.899 59.3 115.308 59.2833 114.508 59.25V64H110.008V49.75C111.758 49.7 113.674 49.675 115.758 49.675ZM117.633 56.1C117.799 55.8833 117.883 55.45 117.883 54.8C117.883 53.95 117.699 53.35 117.333 53C116.983 52.65 116.366 52.475 115.483 52.475C115.183 52.475 114.858 52.5 114.508 52.55V56.35C114.674 56.3667 114.999 56.375 115.483 56.375C116.766 56.375 117.483 56.2833 117.633 56.1ZM137.176 49.75V57.725C137.176 59.375 136.992 60.6667 136.626 61.6C136.276 62.5167 135.609 63.1917 134.626 63.625C133.642 64.0583 132.209 64.275 130.326 64.275C128.942 64.275 127.776 64.1333 126.826 63.85C125.876 63.55 125.117 62.9917 124.551 62.175C124.001 61.3583 123.726 60.2083 123.726 58.725V49.75H128.226V57.775C128.226 58.6583 128.267 59.3333 128.351 59.8C128.451 60.25 128.667 60.6 129.001 60.85C129.334 61.0833 129.842 61.2 130.526 61.2C130.942 61.2 131.334 61.1583 131.701 61.075C132.067 60.9917 132.317 60.8667 132.451 60.7C132.601 60.5 132.676 59.775 132.676 58.525V49.75H137.176ZM150.524 61.275V64H138.974V61.15L145.749 52.5H139.174V49.75H150.324V52.625L143.649 61.275H150.524ZM163.39 61.275V64H151.84V61.15L158.615 52.5H152.04V49.75H163.19V52.625L156.515 61.275H163.39ZM165.231 49.75H169.731V60.7H175.556V64H165.231V49.75ZM177.046 49.75H187.421V52.75H181.546V55.35H186.496V58.05H181.546V60.95H187.396V64H177.046V49.75ZM201.339 60.875H197.189L196.439 64H191.839L196.439 49.75H202.314L206.714 64H202.089L201.339 60.875ZM199.239 52.825L197.764 58.1H200.739L199.339 52.825H199.239ZM212.132 58.25V64H207.957V49.75H212.182L215.957 55.5C216.524 56.35 216.957 57.0667 217.257 57.65H217.332V55.25V49.75H221.482V64H217.232L213.357 58L212.232 56.3H212.157L212.132 58.25ZM228.948 49.75C230.898 49.75 232.49 49.9333 233.723 50.3C234.973 50.6667 235.94 51.3583 236.623 52.375C237.323 53.3917 237.673 54.85 237.673 56.75C237.673 58.7833 237.307 60.3333 236.573 61.4C235.84 62.45 234.857 63.15 233.623 63.5C232.39 63.8333 230.832 64 228.948 64H223.948V49.75H228.948ZM232.298 60.6C232.498 60.4 232.64 59.8833 232.723 59.05C232.807 58.2167 232.848 57.45 232.848 56.75C232.848 55.8667 232.782 55.1667 232.648 54.65C232.532 54.1167 232.315 53.6917 231.998 53.375C231.498 52.825 230.64 52.55 229.423 52.55C229.207 52.55 228.882 52.5667 228.448 52.6V60.9C228.732 60.9333 229.173 60.95 229.773 60.95C230.39 60.95 230.932 60.925 231.398 60.875C231.882 60.8083 232.182 60.7167 232.298 60.6ZM261.806 64H257.606L257.281 56.15C257.231 54.6 257.172 53.425 257.106 52.625H257.031C256.831 53.2583 256.597 54.2417 256.331 55.575L256.206 56.2L254.481 64H250.281L248.831 56.975L248.581 55.725C248.231 54.175 247.989 53.1417 247.856 52.625H247.781C247.714 53.4583 247.656 54.8167 247.606 56.7C247.589 56.8167 247.581 57 247.581 57.25L247.356 64H243.131L243.731 49.75H250.881L252.106 55.9L252.406 57.55C252.539 57.0333 252.664 56.4583 252.781 55.825L253.931 49.75H261.231L261.806 64ZM270.718 64.325C268.234 64.325 266.368 63.7417 265.118 62.575C263.884 61.3917 263.268 59.5 263.268 56.9C263.268 54.35 263.951 52.4917 265.318 51.325C266.684 50.1583 268.493 49.575 270.743 49.575C275.476 49.575 277.843 51.9333 277.843 56.65C277.843 59.0333 277.259 60.9083 276.093 62.275C274.943 63.6417 273.151 64.325 270.718 64.325ZM270.618 61.375C271.084 61.375 271.476 61.3 271.793 61.15C272.109 60.9833 272.359 60.7 272.543 60.3C272.893 59.6167 273.068 58.5 273.068 56.95C273.068 55.4333 272.893 54.3333 272.543 53.65C272.193 52.95 271.551 52.5833 270.618 52.55C270.268 52.55 269.901 52.5917 269.518 52.675C269.151 52.7417 268.918 52.8417 268.818 52.975C268.618 53.2083 268.459 53.7083 268.343 54.475C268.243 55.225 268.193 56.05 268.193 56.95C268.193 58.35 268.326 59.375 268.593 60.025C268.776 60.5083 269.034 60.8583 269.368 61.075C269.701 61.275 270.118 61.375 270.618 61.375ZM292.807 64H288.082L287.232 60.4C287.199 60.2667 287.14 60.0417 287.057 59.725C286.99 59.3917 286.907 59.15 286.807 59C286.707 58.8333 286.565 58.725 286.382 58.675C285.915 58.6917 285.232 58.7 284.332 58.7V64H279.832V49.875C281.849 49.725 283.732 49.65 285.482 49.65C287.065 49.65 288.349 49.7833 289.332 50.05C290.315 50.3 291.049 50.7417 291.532 51.375C292.032 51.9917 292.282 52.8417 292.282 53.925C292.282 54.9417 292.049 55.7417 291.582 56.325C291.115 56.8917 290.365 57.2333 289.332 57.35V57.5C289.915 57.55 290.399 57.7417 290.782 58.075C291.182 58.3917 291.449 58.8 291.582 59.3L292.807 64ZM284.332 55.875C284.482 55.8917 284.774 55.9 285.207 55.9C286.49 55.9 287.24 55.7917 287.457 55.575C287.657 55.375 287.757 54.9083 287.757 54.175C287.757 53.4917 287.574 53.025 287.207 52.775C286.857 52.525 286.274 52.4 285.457 52.4C285.274 52.4 284.899 52.4167 284.332 52.45V55.875ZM294.209 49.75H304.584V52.75H298.709V55.35H303.659V58.05H298.709V60.95H304.559V64H294.209V49.75Z" fill="white"/>
<path d="M101.52 38H93.4204V17.975H86.1754V12.35H108.765V17.975H101.52V38ZM126.476 38H116.351L109.736 12.35H118.376L121.796 31.205H122.021L125.666 12.35H134.126L137.861 31.205H137.996L141.461 12.35H149.741L143.126 38H133.046L129.986 21.62H129.716L126.476 38ZM152.666 12.35H160.766V38H152.666V12.35ZM172.701 19.28C172.701 19.91 173.016 20.405 173.646 20.765C174.306 21.125 175.326 21.515 176.706 21.935C178.356 22.475 179.706 23 180.756 23.51C181.836 24.02 182.766 24.815 183.546 25.895C184.356 26.975 184.761 28.385 184.761 30.125C184.761 35.705 181.131 38.495 173.871 38.495C172.671 38.495 171.201 38.39 169.461 38.18C167.751 37.97 166.191 37.7 164.781 37.37C164.841 36.74 164.961 35.825 165.141 34.625C165.351 33.395 165.546 32.48 165.726 31.88C166.776 32.03 168.351 32.21 170.451 32.42C172.581 32.63 174.186 32.735 175.266 32.735C175.896 32.735 176.271 32.69 176.391 32.6C176.571 32.48 176.706 32.285 176.796 32.015C176.916 31.715 176.976 31.46 176.976 31.25C176.976 30.65 176.691 30.2 176.121 29.9C175.551 29.57 174.576 29.18 173.196 28.73C171.546 28.22 170.181 27.695 169.101 27.155C168.021 26.615 167.076 25.775 166.266 24.635C165.456 23.495 165.051 21.995 165.051 20.135C165.051 18.815 165.351 17.525 165.951 16.265C166.551 14.975 167.166 14.105 167.796 13.655C168.276 13.325 169.266 13.01 170.766 12.71C172.266 12.41 173.676 12.26 174.996 12.26C178.356 12.26 181.101 12.575 183.231 13.205C183.201 13.805 183.096 14.63 182.916 15.68C182.766 16.73 182.601 17.69 182.421 18.56L181.386 18.515C177.486 18.245 174.996 18.11 173.916 18.11C173.466 18.11 173.211 18.125 173.151 18.155C173.031 18.215 172.926 18.35 172.836 18.56C172.746 18.77 172.701 19.01 172.701 19.28ZM201.408 38H193.308V17.975H186.063V12.35H208.653V17.975H201.408V38ZM225.419 29.81V38H217.319V29.9L208.679 12.35H216.914L220.334 20.675C220.694 21.515 221.024 22.4 221.324 23.33H221.414C221.744 22.31 222.074 21.395 222.404 20.585L225.779 12.35H233.969L225.419 29.81Z" fill="white"/>
<path d="M249.352 38H241.252V17.975H234.007V12.35H256.597V17.975H249.352V38ZM258.963 12.35H277.638V17.75H267.063V22.43H275.973V27.29H267.063V32.51H277.593V38H258.963V12.35ZM300.617 37.145C299.507 37.625 298.217 37.97 296.747 38.18C295.277 38.39 293.912 38.495 292.652 38.495C288.572 38.495 285.377 37.43 283.067 35.3C280.757 33.17 279.602 29.9 279.602 25.49C279.602 20.99 280.817 17.63 283.247 15.41C285.677 13.16 289.097 12.035 293.507 12.035C295.607 12.035 297.797 12.32 300.077 12.89C300.077 13.49 300.017 14.39 299.897 15.59C299.777 16.76 299.657 17.585 299.537 18.065H296.702C294.632 18.065 292.997 18.11 291.797 18.2C290.627 18.26 289.922 18.395 289.682 18.605C289.232 19.025 288.887 19.88 288.647 21.17C288.407 22.43 288.287 23.645 288.287 24.815C288.287 26.855 288.542 28.43 289.052 29.54C289.562 30.62 290.207 31.34 290.987 31.7C291.737 32.06 292.982 32.24 294.722 32.24C296.102 32.24 297.902 32.12 300.122 31.88L300.617 37.145ZM303.618 12.35H311.763V21.755H318.738V12.35H326.883V38H318.738V26.93H311.763V38H303.618V12.35Z" fill="#FBA45C"/>
<g clip-path="url(#clip0_2_2)">
<path d="M78.456 22.7042L43.6151 0.326987C42.9361 -0.109057 42.0657 -0.109057 41.387 0.326987L6.54457 22.6951C5.95369 23.0744 5.5962 23.7288 5.59661 24.431L5.60506 61.5491C5.60548 62.2658 5.9774 62.9302 6.58786 63.3055L41.4221 84.6953C41.753 84.8986 42.1269 85.0002 42.5009 85.0002C42.8749 85.0002 43.2491 84.899 43.5796 84.6953L78.4161 63.3139C79.0263 62.9391 79.3986 62.2742 79.3988 61.5576L79.4036 24.4395C79.4038 23.7375 79.0463 23.0835 78.456 22.7042ZM42.5007 5.28345L55.2699 13.4536L42.5007 21.6234L29.732 13.4536L42.5007 5.28345ZM10.349 60.047V46.8651L22.8617 54.4619L22.8637 67.7343L10.349 60.047ZM22.8637 48.99L10.3488 41.3031V27.9558L22.8637 35.9638V48.99ZM13.0339 24.0873L25.2361 16.28L37.4383 24.0873L25.2361 31.8947L13.0339 24.0873ZM27.6074 35.9638L40.1228 27.9554V41.3031L27.6074 48.99V35.9638ZM27.6136 57.2994L35.932 62.6216L27.6136 67.731V57.2994ZM40.1288 78.3336L29.7726 71.9725L40.1288 65.6129V78.3336ZM42.4989 61.2399L29.7008 53.2478L42.4989 45.2914L55.2969 53.2769L42.4989 61.2399ZM44.8729 78.3336V65.6244L55.2212 71.9768L44.8729 78.3336ZM57.3883 67.7405L49.0616 62.6265L57.3883 57.2988V67.7405ZM57.3944 48.9997L44.8795 41.3124V27.966L57.3944 35.9739V48.9997ZM47.5644 24.0966L59.7666 16.2897L71.9688 24.0966L59.7666 31.9039L47.5644 24.0966ZM74.6539 60.0565L62.1385 67.7436V54.72L74.6539 46.8892V60.0565ZM74.6539 41.3124L62.1385 48.9997V35.9737L74.6539 27.9653V41.3124Z" fill="white" stroke="white" stroke-width="1.9404"/>
</g>
<defs>
<clipPath id="clip0_2_2">
<rect width="85" height="85" fill="white"/>
</clipPath>
</defs>
</svg>
