<?xml version="1.0" standalone="no"?>
<svg xmlns:xlink="http://www.w3.org/1999/xlink" id="wave" style="transform:rotate(180deg); transition: 0.3s" viewBox="0 0 1440 250" version="1.1" xmlns="http://www.w3.org/2000/svg"><defs><linearGradient id="sw-gradient-0" x1="0" x2="0" y1="1" y2="0"><stop stop-color="rgba(243, 106, 62, 1)" offset="0%"/><stop stop-color="rgba(255, 179, 11, 1)" offset="100%"/></linearGradient></defs><path style="transform:translate(0, 0px); opacity:1" fill="url(#sw-gradient-0)" d="M0,75L26.7,79.2C53.3,83,107,92,160,112.5C213.3,133,267,167,320,187.5C373.3,208,427,217,480,204.2C533.3,192,587,158,640,137.5C693.3,117,747,108,800,104.2C853.3,100,907,100,960,112.5C1013.3,125,1067,150,1120,158.3C1173.3,167,1227,158,1280,133.3C1333.3,108,1387,67,1440,45.8C1493.3,25,1547,25,1600,41.7C1653.3,58,1707,92,1760,95.8C1813.3,100,1867,75,1920,66.7C1973.3,58,2027,67,2080,95.8C2133.3,125,2187,175,2240,187.5C2293.3,200,2347,175,2400,145.8C2453.3,117,2507,83,2560,87.5C2613.3,92,2667,133,2720,158.3C2773.3,183,2827,192,2880,195.8C2933.3,200,2987,200,3040,166.7C3093.3,133,3147,67,3200,54.2C3253.3,42,3307,83,3360,100C3413.3,117,3467,108,3520,125C3573.3,142,3627,183,3680,175C3733.3,167,3787,108,3813,79.2L3840,50L3840,250L3813.3,250C3786.7,250,3733,250,3680,250C3626.7,250,3573,250,3520,250C3466.7,250,3413,250,3360,250C3306.7,250,3253,250,3200,250C3146.7,250,3093,250,3040,250C2986.7,250,2933,250,2880,250C2826.7,250,2773,250,2720,250C2666.7,250,2613,250,2560,250C2506.7,250,2453,250,2400,250C2346.7,250,2293,250,2240,250C2186.7,250,2133,250,2080,250C2026.7,250,1973,250,1920,250C1866.7,250,1813,250,1760,250C1706.7,250,1653,250,1600,250C1546.7,250,1493,250,1440,250C1386.7,250,1333,250,1280,250C1226.7,250,1173,250,1120,250C1066.7,250,1013,250,960,250C906.7,250,853,250,800,250C746.7,250,693,250,640,250C586.7,250,533,250,480,250C426.7,250,373,250,320,250C266.7,250,213,250,160,250C106.7,250,53,250,27,250L0,250Z"/><defs><linearGradient id="sw-gradient-1" x1="0" x2="0" y1="1" y2="0"><stop stop-color="rgba(243, 106, 62, 1)" offset="0%"/><stop stop-color="rgba(255, 179, 11, 1)" offset="100%"/></linearGradient></defs><path style="transform:translate(0, 50px); opacity:0.9" fill="url(#sw-gradient-1)" d="M0,25L26.7,20.8C53.3,17,107,8,160,4.2C213.3,0,267,0,320,25C373.3,50,427,100,480,108.3C533.3,117,587,83,640,75C693.3,67,747,83,800,104.2C853.3,125,907,150,960,141.7C1013.3,133,1067,92,1120,100C1173.3,108,1227,167,1280,183.3C1333.3,200,1387,175,1440,170.8C1493.3,167,1547,183,1600,158.3C1653.3,133,1707,67,1760,58.3C1813.3,50,1867,100,1920,137.5C1973.3,175,2027,200,2080,200C2133.3,200,2187,175,2240,137.5C2293.3,100,2347,50,2400,54.2C2453.3,58,2507,117,2560,145.8C2613.3,175,2667,175,2720,175C2773.3,175,2827,175,2880,179.2C2933.3,183,2987,192,3040,166.7C3093.3,142,3147,83,3200,83.3C3253.3,83,3307,142,3360,137.5C3413.3,133,3467,67,3520,50C3573.3,33,3627,67,3680,91.7C3733.3,117,3787,133,3813,141.7L3840,150L3840,250L3813.3,250C3786.7,250,3733,250,3680,250C3626.7,250,3573,250,3520,250C3466.7,250,3413,250,3360,250C3306.7,250,3253,250,3200,250C3146.7,250,3093,250,3040,250C2986.7,250,2933,250,2880,250C2826.7,250,2773,250,2720,250C2666.7,250,2613,250,2560,250C2506.7,250,2453,250,2400,250C2346.7,250,2293,250,2240,250C2186.7,250,2133,250,2080,250C2026.7,250,1973,250,1920,250C1866.7,250,1813,250,1760,250C1706.7,250,1653,250,1600,250C1546.7,250,1493,250,1440,250C1386.7,250,1333,250,1280,250C1226.7,250,1173,250,1120,250C1066.7,250,1013,250,960,250C906.7,250,853,250,800,250C746.7,250,693,250,640,250C586.7,250,533,250,480,250C426.7,250,373,250,320,250C266.7,250,213,250,160,250C106.7,250,53,250,27,250L0,250Z"/></svg>