<?xml version="1.0" standalone="no"?>
<svg xmlns:xlink="http://www.w3.org/1999/xlink" id="wave" style="transform:rotate(0deg); transition: 0.3s" viewBox="0 0 1440 220" version="1.1" xmlns="http://www.w3.org/2000/svg"><defs><linearGradient id="sw-gradient-0" x1="0" x2="0" y1="1" y2="0"><stop stop-color="rgba(243, 106, 62, 1)" offset="0%"/><stop stop-color="rgba(255, 179, 11, 1)" offset="100%"/></linearGradient></defs><path style="transform:translate(0, 0px); opacity:1" fill="url(#sw-gradient-0)" d="M0,176L26.7,157.7C53.3,139,107,103,160,95.3C213.3,88,267,110,320,117.3C373.3,125,427,117,480,113.7C533.3,110,587,110,640,102.7C693.3,95,747,81,800,73.3C853.3,66,907,66,960,80.7C1013.3,95,1067,125,1120,146.7C1173.3,169,1227,183,1280,187C1333.3,191,1387,183,1440,157.7C1493.3,132,1547,88,1600,66C1653.3,44,1707,44,1760,40.3C1813.3,37,1867,29,1920,29.3C1973.3,29,2027,37,2080,58.7C2133.3,81,2187,117,2240,113.7C2293.3,110,2347,66,2400,47.7C2453.3,29,2507,37,2560,44C2613.3,51,2667,59,2720,55C2773.3,51,2827,37,2880,25.7C2933.3,15,2987,7,3040,11C3093.3,15,3147,29,3200,36.7C3253.3,44,3307,44,3360,58.7C3413.3,73,3467,103,3520,113.7C3573.3,125,3627,117,3680,95.3C3733.3,73,3787,37,3813,18.3L3840,0L3840,220L3813.3,220C3786.7,220,3733,220,3680,220C3626.7,220,3573,220,3520,220C3466.7,220,3413,220,3360,220C3306.7,220,3253,220,3200,220C3146.7,220,3093,220,3040,220C2986.7,220,2933,220,2880,220C2826.7,220,2773,220,2720,220C2666.7,220,2613,220,2560,220C2506.7,220,2453,220,2400,220C2346.7,220,2293,220,2240,220C2186.7,220,2133,220,2080,220C2026.7,220,1973,220,1920,220C1866.7,220,1813,220,1760,220C1706.7,220,1653,220,1600,220C1546.7,220,1493,220,1440,220C1386.7,220,1333,220,1280,220C1226.7,220,1173,220,1120,220C1066.7,220,1013,220,960,220C906.7,220,853,220,800,220C746.7,220,693,220,640,220C586.7,220,533,220,480,220C426.7,220,373,220,320,220C266.7,220,213,220,160,220C106.7,220,53,220,27,220L0,220Z"/><defs><linearGradient id="sw-gradient-1" x1="0" x2="0" y1="1" y2="0"><stop stop-color="rgba(243, 106, 62, 1)" offset="0%"/><stop stop-color="rgba(255, 179, 11, 1)" offset="100%"/></linearGradient></defs><path style="transform:translate(0, 50px); opacity:0.9" fill="url(#sw-gradient-1)" d="M0,44L26.7,62.3C53.3,81,107,117,160,113.7C213.3,110,267,66,320,44C373.3,22,427,22,480,47.7C533.3,73,587,125,640,139.3C693.3,154,747,132,800,113.7C853.3,95,907,81,960,88C1013.3,95,1067,125,1120,135.7C1173.3,147,1227,139,1280,132C1333.3,125,1387,117,1440,117.3C1493.3,117,1547,125,1600,113.7C1653.3,103,1707,73,1760,80.7C1813.3,88,1867,132,1920,146.7C1973.3,161,2027,147,2080,117.3C2133.3,88,2187,44,2240,22C2293.3,0,2347,0,2400,29.3C2453.3,59,2507,117,2560,143C2613.3,169,2667,161,2720,157.7C2773.3,154,2827,154,2880,128.3C2933.3,103,2987,51,3040,47.7C3093.3,44,3147,88,3200,121C3253.3,154,3307,176,3360,157.7C3413.3,139,3467,81,3520,69.7C3573.3,59,3627,95,3680,110C3733.3,125,3787,117,3813,113.7L3840,110L3840,220L3813.3,220C3786.7,220,3733,220,3680,220C3626.7,220,3573,220,3520,220C3466.7,220,3413,220,3360,220C3306.7,220,3253,220,3200,220C3146.7,220,3093,220,3040,220C2986.7,220,2933,220,2880,220C2826.7,220,2773,220,2720,220C2666.7,220,2613,220,2560,220C2506.7,220,2453,220,2400,220C2346.7,220,2293,220,2240,220C2186.7,220,2133,220,2080,220C2026.7,220,1973,220,1920,220C1866.7,220,1813,220,1760,220C1706.7,220,1653,220,1600,220C1546.7,220,1493,220,1440,220C1386.7,220,1333,220,1280,220C1226.7,220,1173,220,1120,220C1066.7,220,1013,220,960,220C906.7,220,853,220,800,220C746.7,220,693,220,640,220C586.7,220,533,220,480,220C426.7,220,373,220,320,220C266.7,220,213,220,160,220C106.7,220,53,220,27,220L0,220Z"/></svg>